<?xml version="1.0" standalone="no"?>
<!DOCTYPE svg PUBLIC "-//W3C//DTD SVG 1.1//EN" "http://www.w3.org/Graphics/SVG/1.1/DTD/svg11.dtd" >
<svg xmlns="http://www.w3.org/2000/svg" xmlns:xlink="http://www.w3.org/1999/xlink" version="1.1">
<metadata></metadata>
<defs>
<font id="bungeehairline" horiz-adv-x="1509" >
<font-face units-per-em="2048" ascent="1761" descent="-287" />
<missing-glyph horiz-adv-x="460" />
<glyph horiz-adv-x="0" />
<glyph horiz-adv-x="682" />
<glyph unicode=" "  horiz-adv-x="460" />
<glyph unicode="&#x09;" horiz-adv-x="460" />
<glyph unicode="&#xa0;" horiz-adv-x="460" />
<glyph unicode="!" horiz-adv-x="868" d="M424 164v88h20v-88h-20zM424 721v569h20v-569h-20z" />
<glyph unicode="&#x22;" horiz-adv-x="1323" d="M334 891v399h20v-399h-20zM969 891v399h20v-399h-20z" />
<glyph unicode="#" horiz-adv-x="1536" d="M256 451v20h168l78 543h-172v20h174l37 256h20l-37 -256h572l37 256h20l-37 -256h164v-20h-166l-78 -543h170v-20h-172l-39 -267h-20l39 267h-572l-39 -267h-20l39 267h-166zM444 471h572l78 543h-572z" />
<glyph unicode="$" horiz-adv-x="1331" d="M289 184v21h510q94 0 150.5 51.5t56.5 134.5v119q0 90 -31 128.5t-94 51.5l-432 88q-60 12 -90.5 45.5t-30.5 112.5v168q0 82 57.5 134t151.5 52h135v185h20v-185h299v-20h-454q-85 0 -137 -46.5t-52 -119.5v-168q0 -67 26.5 -97t78.5 -40l432 -88q69 -13 105 -57 t36 -144v-119q0 -92 -62 -149.5t-165 -57.5h-107v-184h-20v184h-383z" />
<glyph unicode="%" horiz-adv-x="2111" d="M225 895v299q0 88 53.5 126t174.5 38q122 0 173.5 -37.5t51.5 -126.5v-299q0 -89 -51.5 -125.5t-173.5 -36.5q-121 0 -174.5 37t-53.5 125zM246 895q0 -77 49.5 -109t157.5 -32t156 31.5t48 109.5v299q0 78 -48 110.5t-156 32.5q-107 0 -157 -32.5t-50 -110.5v-299z M920 184l272 1106h20l-272 -1106h-20zM1454 274v299q0 89 53 126.5t174 37.5q122 0 174 -37.5t52 -126.5v-299q0 -89 -52 -125t-174 -36t-174.5 36.5t-52.5 124.5zM1475 274q0 -77 49.5 -109t156.5 -32q108 0 156.5 31.5t48.5 109.5v299q0 78 -48.5 111t-156.5 33 q-107 0 -156.5 -33t-49.5 -111v-299z" />
<glyph unicode="&#x26;" horiz-adv-x="1568" d="M272 406v124q0 106 63.5 169t186.5 63h15q-107 43 -107 199v114q0 113 58.5 164t183.5 51h256v-20h-256q-116 0 -168.5 -47.5t-52.5 -151.5v-110q0 -100 46 -148.5t142 -48.5h20v-21h-137q-113 0 -171 -58.5t-58 -154.5v-124q0 -105 55 -153t176 -48h482q83 0 126.5 42 t43.5 124v276h153v-20h-133v-256q0 -187 -190 -187h-494q-122 0 -181 54t-59 168z" />
<glyph unicode="'" horiz-adv-x="729" d="M354 891v399h21v-399h-21z" />
<glyph unicode="(" horiz-adv-x="878" d="M322 254v965q0 129 68.5 180t211.5 51v-20q-132 0 -196 -45.5t-64 -165.5v-965q0 -119 64.5 -165t195.5 -46v-20q-142 0 -211 51t-69 180z" />
<glyph unicode=")" horiz-adv-x="878" d="M276 23v20q131 0 196 46t65 165v965q0 120 -64.5 165.5t-196.5 45.5v20q143 0 212 -51t69 -180v-965q0 -129 -69.5 -180t-211.5 -51z" />
<glyph unicode="*" horiz-adv-x="1470" d="M365 987l8 21l356 -117v399h21v-399l356 117l8 -21l-352 -115l217 -311l-16 -12l-224 317l-223 -317l-16 12l217 311z" />
<glyph unicode="+" horiz-adv-x="1503" d="M328 727v21h413v413h21v-413h414v-21h-414v-414h-21v414h-413z" />
<glyph unicode="," horiz-adv-x="786" d="M256 -61h94q75 0 117.5 42t42.5 123v224h-254v20h274v-244q0 -92 -47.5 -139t-132.5 -47h-94v21z" />
<glyph unicode="-" horiz-adv-x="860" d="M266 727v21h328v-21h-328z" />
<glyph unicode="." horiz-adv-x="786" d="M383 184v195h20v-195h-20z" />
<glyph unicode="/" horiz-adv-x="710" d="M240 0l213 1475h20l-213 -1475h-20z" />
<glyph unicode="0" horiz-adv-x="1488" d="M340 434v604q0 65 18.5 113t62.5 86.5t124.5 58t197.5 19.5q116 0 197.5 -20t126.5 -58.5t64.5 -86.5t19.5 -112v-604q0 -65 -19.5 -113t-64.5 -86t-126 -57.5t-198 -19.5t-197.5 19.5t-124.5 57.5t-62.5 86t-18.5 113zM360 434q0 -61 19 -106t61.5 -80t118.5 -52.5 t184 -17.5q211 0 299 65.5t88 190.5v604q0 124 -88.5 190t-298.5 66q-108 0 -184 -17.5t-118.5 -52.5t-61.5 -80t-19 -106v-604z" />
<glyph unicode="1" horiz-adv-x="1230" d="M283 174v21h348v1075h-307v20h327v-1095h316v-21h-684z" />
<glyph unicode="2" horiz-adv-x="1308" d="M305 184v320q0 74 24.5 110t88.5 58l477 157q59 24 59 97v186q0 89 -49.5 123.5t-148.5 34.5h-412v20h412q110 0 164.5 -40t54.5 -138v-186q0 -85 -72 -115l-477 -158q-59 -21 -80.5 -51t-21.5 -98v-299h696v-21h-715z" />
<glyph unicode="3" horiz-adv-x="1304" d="M285 184v21h450q75 0 125 12.5t76.5 38t36.5 57t10 76.5v141q0 105 -52 155t-169 50h-311v21h170q60 0 103 10.5t66.5 26.5t37 42t17 49.5t3.5 57.5v139q0 43 -11 75t-37.5 59t-76.5 41t-123 14h-315v20h315q82 0 137 -16.5t82.5 -48t38 -67.5t10.5 -85v-131 q0 -35 -4 -60t-17 -53t-41.5 -47.5t-72.5 -29.5h33q124 0 181 -56t57 -166v-141q0 -50 -10 -84t-38 -63t-83 -43.5t-138 -14.5h-450z" />
<glyph unicode="4" horiz-adv-x="1452" d="M352 762v528h21v-528q0 -99 51 -147t156 -48h489v723h21v-1106h-21v363h-489q-117 0 -172.5 53.5t-55.5 161.5z" />
<glyph unicode="5" horiz-adv-x="1325" d="M297 184v21h483q115 0 164 42t49 138v180q0 95 -48 137.5t-146 42.5h-443v545h623v-20h-602v-504h422q109 0 162 -48.5t53 -152.5v-180q0 -106 -54 -153.5t-180 -47.5h-483z" />
<glyph unicode="6" horiz-adv-x="1419" d="M348 383v672q0 130 68.5 182.5t206.5 52.5h360v-20h-360q-127 0 -190.5 -47t-63.5 -168v-385q14 32 41.5 54t58 33.5t81 17.5t90 7.5t105.5 1.5q51 0 84 -1t74.5 -6t67.5 -13.5t53.5 -25t42.5 -39.5t25 -57.5t10 -78.5v-180q0 -60 -19 -104t-49 -69.5t-79 -40.5 t-98.5 -19.5t-117.5 -4.5q-74 0 -126.5 4.5t-106 19t-85.5 39.5t-52.5 69t-20.5 106zM369 383q0 -42 10.5 -75t27.5 -55.5t45 -38.5t56.5 -25.5t69.5 -14.5t76.5 -6.5t84.5 -1.5q64 0 108.5 3.5t92 16.5t76 36t47 63.5t18.5 97.5v180q0 33 -6 59.5t-15 46t-26.5 35t-33 25.5 t-42 17t-46 10.5t-53 5t-55 2t-59.5 0.5h-1h-1h-1h-1h-1h-1h-1h-1h-1h-2q-164 0 -230 -18q-133 -42 -135 -177v-186z" />
<glyph unicode="7" horiz-adv-x="1284" d="M262 1270v20h694v-450q0 -47 -17 -73.5t-54 -41.5l-348 -139q-60 -24 -60 -94v-308h-20v308q0 84 71 114l349 139q59 23 59 95v430h-674z" />
<glyph unicode="8" horiz-adv-x="1456" d="M313 354v189q0 84 59.5 139t200.5 74q-97 17 -141.5 60t-44.5 116v211q0 97 82.5 144.5t259.5 47.5q179 0 259.5 -50.5t80.5 -158.5v-194q0 -73 -43.5 -116t-140.5 -60q141 -19 199.5 -73t58.5 -138v-191q0 -40 -11 -71.5t-39.5 -59.5t-75 -46.5t-119 -29t-169.5 -10.5 q-120 0 -203.5 15.5t-129 46t-64.5 68t-19 87.5zM334 354q0 -95 91.5 -145.5t303.5 -50.5t302.5 50.5t90.5 145.5v191q0 62 -35.5 105t-125 69t-232.5 26q-395 0 -395 -202v-189zM408 932q0 -88 78 -127t243 -39t242.5 39t77.5 127v194q0 100 -78 144.5t-242 44.5 q-163 0 -242 -41.5t-79 -130.5v-211z" />
<glyph unicode="9" horiz-adv-x="1419" d="M317 911v181q0 60 19 104t49 69t79 40t98.5 19.5t117.5 4.5q74 0 126.5 -4.5t106 -18.5t85.5 -39.5t52.5 -69t20.5 -105.5v-672q0 -131 -68 -183.5t-206 -52.5h-361v21h361q127 0 190.5 47t63.5 168v385q-14 -32 -41.5 -54t-58.5 -34t-81 -18t-90.5 -7.5t-105.5 -1.5 q-51 0 -84 1t-74.5 6t-67.5 13.5t-53.5 25t-42.5 39.5t-25 57.5t-10 78.5zM338 911q0 -33 6 -59.5t15 -46t26.5 -34.5t32.5 -25t42.5 -17t46 -10.5t53 -5t55 -2t59.5 -0.5h13h54t51.5 1.5t52 4t47 7t45 12t37.5 17.5t32.5 24.5t23 32.5t16.5 42t5 53v187q0 58 -20.5 99 t-51 63.5t-83 35t-99.5 16t-117 3.5q-64 0 -108.5 -3.5t-92 -16.5t-76 -36t-47 -63.5t-18.5 -97.5v-181z" />
<glyph unicode=":" horiz-adv-x="786" d="M383 184v195h20v-195h-20zM383 911v195h20v-195h-20z" />
<glyph unicode=";" horiz-adv-x="786" d="M256 -61h94q75 0 117.5 42t42.5 123v224h-254v20h274v-244q0 -92 -47.5 -139t-132.5 -47h-94v21zM383 911v195h20v-195h-20z" />
<glyph unicode="&#x3c;" horiz-adv-x="1462" d="M360 662v147q0 63 29.5 92.5t89.5 46.5l615 176v-20l-611 -176q-50 -14 -76 -39.5t-26 -79.5v-147q0 -54 27 -82.5t75 -42.5l611 -177v-20l-615 176q-58 17 -88.5 50t-30.5 96z" />
<glyph unicode="=" horiz-adv-x="1503" d="M328 420v20h848v-20h-848zM328 1034v21h848v-21h-848z" />
<glyph unicode="&#x3e;" horiz-adv-x="1462" d="M369 340v20l610 177q48 14 75 42.5t27 82.5v147q0 54 -26 79.5t-76 39.5l-610 176v20l614 -176q59 -17 89 -46.5t30 -92.5v-147q0 -63 -30.5 -96t-88.5 -50z" />
<glyph unicode="?" horiz-adv-x="1343" d="M276 1266v20h551q38 0 70 -8.5t61 -28t45.5 -57.5t16.5 -92v-232q0 -57 -30.5 -80t-86.5 -30l-442 -62l-4 23l442 59q24 4 38 8t30.5 13t24 26t7.5 43v232q0 91 -49 128.5t-123 37.5h-551zM508 164v88h20v-88h-20z" />
<glyph unicode="@" horiz-adv-x="1775" d="M215 307v856q0 73 12 126.5t53.5 110t112.5 92t196.5 58.5t299.5 23q125 0 225 -12t169.5 -31.5t120.5 -50.5t81 -64t47.5 -77t23 -84t5.5 -91v-545q0 -154 -55.5 -222t-184.5 -68h-537q-99 0 -140.5 48t-41.5 159v329q0 30 1 46.5t6 43t15 41.5t29 33.5t47.5 27.5t71 16 t98.5 7h295v-731h156q119 0 169 63.5t50 206.5v545q0 69 -12.5 120.5t-53 105t-110 87t-190 55t-285.5 21.5t-285.5 -21.5t-190.5 -55t-110.5 -86.5t-53.5 -105t-13 -121v-856q0 -48 6 -86.5t23.5 -80t47.5 -73t79.5 -60.5t117 -48t163.5 -30t216 -11h356v-20h-356 q-126 0 -226.5 12t-170 31.5t-120.5 50.5t-81 64t-47.5 77t-23 84t-5.5 90zM623 535q0 -100 36 -143.5t125 -43.5h361v711h-275q-59 0 -102.5 -7t-69.5 -22t-42 -30t-23 -41.5t-8.5 -44.5t-1.5 -50v-329z" />
<glyph unicode="A" horiz-adv-x="1495" d="M328 184v437q0 111 34 198l132 336q15 37 24 54.5t26 40t41 31.5t58 9h201q33 0 56 -9t40 -31t26 -40.5t25 -56.5l142 -334q34 -87 34 -198v-437h-20v353h-799v-353h-20zM348 557h799v64q0 99 -33 190l-141 334q-15 36 -23 51.5t-23.5 36.5t-35.5 29t-47 8h-201 q-30 0 -51 -8.5t-36 -28t-23 -36.5t-21 -50l-131 -336q-33 -91 -33 -190v-64z" />
<glyph unicode="B" horiz-adv-x="1484" d="M369 184v1106h415q82 0 137.5 -16.5t83 -48t38 -67.5t10.5 -85v-131q0 -35 -4.5 -60t-17 -51.5t-40 -45t-69.5 -29.5q82 0 136.5 -17t82 -51t37.5 -73t10 -95v-131q0 -50 -10 -84t-37.5 -63t-82.5 -43.5t-138 -14.5h-551zM389 205h531q75 0 124.5 12.5t76 38t36.5 56.5 t10 77v131q0 51 -9.5 86.5t-35 66.5t-75.5 46.5t-125 15.5h-533v-530zM389 756h395q81 0 133 14.5t76 43t31.5 57t7.5 71.5v131q0 45 -10 78t-36 61.5t-76.5 43t-125.5 14.5h-395v-514z" />
<glyph unicode="C" horiz-adv-x="1286" d="M340 449v573q0 76 14.5 124.5t51.5 82t100 47.5t162 14h342v-20h-342q-122 0 -188.5 -25t-93 -77t-26.5 -146v-573q0 -69 13.5 -113.5t48.5 -75t94 -43t152 -12.5h342v-21h-342q-100 0 -163.5 14t-100 47.5t-50.5 81t-14 122.5z" />
<glyph unicode="D" horiz-adv-x="1527" d="M365 184v1106h495q81 0 141 -15t95.5 -39t56.5 -62t28 -77t7 -91v-543q0 -66 -12 -111.5t-45 -86t-100.5 -61t-170.5 -20.5h-495zM385 205h475q95 0 158 18.5t94.5 55.5t43 79.5t11.5 104.5v543q0 61 -12 105t-44 82t-94.5 57.5t-156.5 19.5h-475v-1065z" />
<glyph unicode="E" horiz-adv-x="1339" d="M365 184v1106h690v-20h-670v-514h504v-21h-504v-530h670v-21h-690z" />
<glyph unicode="F" horiz-adv-x="1265" d="M365 184v1106h653v-20h-633v-586h467v-20h-467v-480h-20z" />
<glyph unicode="G" horiz-adv-x="1449" d="M342 449v573q0 76 14.5 124.5t51.5 82t100 47.5t162 14h354v-20h-354q-122 0 -188.5 -25t-93 -77t-26.5 -146v-573q0 -92 30 -143.5t105.5 -76t213.5 -24.5h387v391h20v-412h-407q-91 0 -154 9.5t-105.5 28.5t-66.5 52t-33.5 74t-9.5 101z" />
<glyph unicode="H" horiz-adv-x="1554" d="M362 184v1106h21v-542h786v542h21v-1106h-21v543h-786v-543h-21z" />
<glyph unicode="I" horiz-adv-x="1239" d="M293 184v21h317v1065h-317v20h651v-20h-313v-1065h313v-21h-651z" />
<glyph unicode="J" horiz-adv-x="1409" d="M297 436v162h20v-162q0 -126 82 -191t283 -65q99 0 168 18t108.5 53t56.5 80t17 105v854h21v-854q0 -64 -17.5 -112t-58.5 -86t-115 -58t-180 -20q-112 0 -189 19.5t-119 57.5t-59.5 86t-17.5 113z" />
<glyph unicode="K" horiz-adv-x="1527" d="M365 184v1106h20v-545h444l236 545h22l-235 -545h84q128 0 188 -47t60 -153v-361h-21v361q0 96 -55 138t-172 42h-551v-541h-20z" />
<glyph unicode="L" horiz-adv-x="1423" d="M365 184v1106h20v-1085h713v403h20v-424h-753z" />
<glyph unicode="M" horiz-adv-x="1738" d="M358 184v1043q0 33 13 48t41 15h34q41 0 62 -35l250 -381q38 -58 53.5 -72t50.5 -14t51 14t54 72l250 381q21 35 59 35h35q29 0 42 -14.5t13 -48.5v-1043h-20v1043q0 43 -35 43h-31q-30 0 -47 -29l-250 -377q-23 -35 -32 -47.5t-24 -27t-29 -18t-36 -3.5q-41 0 -60.5 17 t-60.5 79l-249 377q-17 29 -50 29h-30q-33 0 -33 -43v-1043h-21z" />
<glyph unicode="N" horiz-adv-x="1542" d="M356 184v1084q0 11 7.5 17.5t17.5 6.5q13 0 31 -18l753 -848v864h21v-1106h-21v211l-774 869q-6 6 -10 6t-4 -6v-1080h-21z" />
<glyph unicode="O" d="M340 434v604q0 65 19.5 113.5t65 86.5t127.5 57.5t200 19.5t200.5 -19.5t128.5 -57.5t66 -86.5t20 -113.5v-604q0 -65 -20 -113.5t-66 -86t-128.5 -57t-200.5 -19.5t-200 19t-127.5 57t-65 86.5t-19.5 113.5zM360 434q0 -48 11.5 -86t39 -70.5t71.5 -54t112 -33.5 t158 -12t158 12t113 33.5t73 54t39.5 70.5t11.5 86v604q0 48 -11.5 86t-39.5 70.5t-73 54t-113 33.5t-158 12t-158 -12t-112 -33.5t-71.5 -54t-39 -70.5t-11.5 -86v-604z" />
<glyph unicode="P" horiz-adv-x="1396" d="M371 184v1106h442q94 0 156.5 -20t94.5 -60t44 -86.5t12 -111.5v-152q0 -65 -12 -110.5t-44 -84.5t-94.5 -58t-156.5 -19h-422v-404h-20zM391 608h422q71 0 122.5 12.5t83 33.5t50 54t25 68.5t6.5 83.5v152q0 48 -6.5 84t-25 70t-50 56t-83 35t-122.5 13h-422v-662z" />
<glyph unicode="Q" d="M340 434v604q0 65 19.5 113.5t65 86.5t127.5 57.5t200 19.5t200.5 -19.5t128.5 -57.5t66 -86.5t20 -113.5v-604q0 -64 -19.5 -112.5t-65 -86t-125.5 -57t-195 -20.5v-158h-21v158q-115 1 -194.5 20.5t-124 57.5t-63.5 85.5t-19 112.5zM360 434q0 -48 11.5 -86t39 -70.5 t71.5 -54t112 -33.5t158 -12t158 12t113 33.5t73 54t39.5 70.5t11.5 86v604q0 48 -11.5 86t-39.5 70.5t-73 54t-113 33.5t-158 12t-158 -12t-112 -33.5t-71.5 -54t-39 -70.5t-11.5 -86v-604z" />
<glyph unicode="R" horiz-adv-x="1521" d="M362 184v1106h467q116 0 175 -63.5t59 -169.5v-142q0 -101 -26.5 -158t-96.5 -79h23q247 0 247 -219v-275h-20v275q0 102 -55.5 151t-171.5 49h-580v-475h-21zM383 678h446q122 0 167.5 57t45.5 178v144q0 99 -53.5 156t-159.5 57h-446v-592z" />
<glyph unicode="S" horiz-adv-x="1331" d="M289 184v21h510q94 0 150.5 51.5t56.5 134.5v119q0 90 -31 128.5t-94 51.5l-432 88q-60 12 -90.5 45.5t-30.5 112.5v168q0 82 57.5 134t151.5 52h454v-20h-454q-85 0 -137 -46.5t-52 -119.5v-168q0 -67 26.5 -97t78.5 -40l432 -88q69 -13 105 -57t36 -144v-119 q0 -92 -62 -149.5t-165 -57.5h-510z" />
<glyph unicode="T" horiz-adv-x="1343" d="M242 1270v20h860v-20h-420v-1086h-20v1086h-420z" />
<glyph unicode="U" horiz-adv-x="1527" d="M356 436v854h21v-854q0 -61 18.5 -105.5t61.5 -79.5t120 -53t189 -18t189.5 18t121 53t62 79.5t18.5 105.5v854h21v-854q0 -65 -19.5 -113.5t-65 -86.5t-127.5 -57t-200 -19t-199.5 19t-126.5 57t-64.5 86t-19.5 114z" />
<glyph unicode="V" horiz-adv-x="1495" d="M342 848v442h20v-442q0 -112 33 -191l135 -327q14 -34 22 -51t23.5 -37.5t35.5 -28.5t48 -8h181q28 0 48 8t35.5 28.5t23.5 37.5t22 51l135 327q33 79 33 191v442h20v-442q0 -121 -33 -199l-135 -327q-29 -71 -59.5 -104.5t-89.5 -33.5h-181q-59 0 -89.5 33.5 t-59.5 104.5l-135 327q-33 78 -33 199z" />
<glyph unicode="W" horiz-adv-x="1701" d="M344 686v604h21v-602q0 -156 10 -207l51 -233q3 -18 16.5 -30.5t30.5 -12.5h10q15 0 22 0.5t17.5 7.5t16.5 20l168 377q26 58 46.5 77.5t53.5 19.5h92q33 0 53.5 -19.5t46.5 -77.5l168 -377q6 -13 16.5 -20t17.5 -7.5t22 -0.5h10q17 0 30.5 12.5t16.5 30.5l51 233 q10 51 10 207v602h21v-604q0 -156 -10 -207l-52 -231q-14 -64 -67 -64h-14q-54 0 -68 35l-168 381q-24 53 -41 69.5t-43 16.5h-92q-26 0 -43 -16.5t-41 -69.5l-168 -381q-14 -35 -68 -35h-14q-53 0 -67 64l-52 231q-10 51 -10 207z" />
<glyph unicode="X" d="M342 184v92q0 43 0.5 60t8 47t22.5 51l245 336l-245 332q-14 20 -21.5 49t-8.5 49.5t-1 59.5v30h20v-30q0 -38 1 -57.5t7.5 -47t20.5 -45.5l246 -332h244l237 332q29 42 29 150v30h20v-30q0 -41 -1 -60t-8 -48.5t-21 -49.5l-242 -336l242 -332q14 -20 21 -49.5t8 -48.5 t1 -60v-92h-20v92q0 38 -1 57.5t-7.5 47t-20.5 45.5l-239 332h-246l-242 -332q-29 -40 -29 -150v-92h-20z" />
<glyph unicode="Y" horiz-adv-x="1443" d="M313 1055v235h21v-235q0 -107 28 -150l199 -276q50 -74 131 -74h56q76 0 133 74l204 276q14 17 20.5 44.5t7.5 47.5t1 58v235h21v-235q0 -43 -0.5 -60.5t-8 -47.5t-22.5 -50l-205 -276q-34 -45 -69.5 -65.5t-81.5 -20.5h-15v-351h-20v351h-21q-86 0 -149 86l-199 276 q-14 19 -21.5 48t-8.5 50t-1 60z" />
<glyph unicode="Z" horiz-adv-x="1351" d="M315 1270v20h625q34 0 49 -16t15 -51v-33q0 -32 -35 -76l-600 -770q-12 -15 -17 -22t-8.5 -17.5t-3.5 -23.5v-29q0 -47 43 -47h690v-21h-690q-34 0 -49 16.5t-15 51.5v33q0 31 35 75l600 770q17 21 23 33t6 31v29q0 47 -43 47h-625z" />
<glyph unicode="[" horiz-adv-x="878" d="M322 23v1427h280v-20h-260v-1387h260v-20h-280z" />
<glyph unicode="\" horiz-adv-x="710" d="M240 1475h20l213 -1475h-20z" />
<glyph unicode="]" horiz-adv-x="878" d="M276 23v20h261v1387h-261v20h281v-1427h-281z" />
<glyph unicode="^" horiz-adv-x="1462" d="M307 535l176 618q18 67 45 98t93 31h149q65 0 92 -31t45 -96l178 -620h-22l-176 616q-7 28 -13.5 43.5t-19 33.5t-33.5 26t-51 8h-149q-30 0 -50.5 -7.5t-33 -26.5t-18.5 -34t-15 -45l-174 -614h-23z" />
<glyph unicode="_" horiz-adv-x="1503" d="M328 -10v20h848v-20h-848z" />
<glyph unicode="`" horiz-adv-x="1024" d="M266 1776v20l490 -61v-21z" />
<glyph unicode="a" horiz-adv-x="1495" d="M328 184v437q0 111 34 198l132 336q15 37 24 54.5t26 40t41 31.5t58 9h201q33 0 56 -9t40 -31t26 -40.5t25 -56.5l142 -334q34 -87 34 -198v-437h-20v353h-799v-353h-20zM348 557h799v64q0 99 -33 190l-141 334q-15 36 -23 51.5t-23.5 36.5t-35.5 29t-47 8h-201 q-30 0 -51 -8.5t-36 -28t-23 -36.5t-21 -50l-131 -336q-33 -91 -33 -190v-64z" />
<glyph unicode="b" horiz-adv-x="1484" d="M369 184v1106h415q82 0 137.5 -16.5t83 -48t38 -67.5t10.5 -85v-131q0 -35 -4.5 -60t-17 -51.5t-40 -45t-69.5 -29.5q82 0 136.5 -17t82 -51t37.5 -73t10 -95v-131q0 -50 -10 -84t-37.5 -63t-82.5 -43.5t-138 -14.5h-551zM389 205h531q75 0 124.5 12.5t76 38t36.5 56.5 t10 77v131q0 51 -9.5 86.5t-35 66.5t-75.5 46.5t-125 15.5h-533v-530zM389 756h395q81 0 133 14.5t76 43t31.5 57t7.5 71.5v131q0 45 -10 78t-36 61.5t-76.5 43t-125.5 14.5h-395v-514z" />
<glyph unicode="c" horiz-adv-x="1286" d="M340 449v573q0 76 14.5 124.5t51.5 82t100 47.5t162 14h342v-20h-342q-122 0 -188.5 -25t-93 -77t-26.5 -146v-573q0 -69 13.5 -113.5t48.5 -75t94 -43t152 -12.5h342v-21h-342q-100 0 -163.5 14t-100 47.5t-50.5 81t-14 122.5z" />
<glyph unicode="d" horiz-adv-x="1527" d="M365 184v1106h495q81 0 141 -15t95.5 -39t56.5 -62t28 -77t7 -91v-543q0 -66 -12 -111.5t-45 -86t-100.5 -61t-170.5 -20.5h-495zM385 205h475q95 0 158 18.5t94.5 55.5t43 79.5t11.5 104.5v543q0 61 -12 105t-44 82t-94.5 57.5t-156.5 19.5h-475v-1065z" />
<glyph unicode="e" horiz-adv-x="1339" d="M365 184v1106h690v-20h-670v-514h504v-21h-504v-530h670v-21h-690z" />
<glyph unicode="f" horiz-adv-x="1265" d="M365 184v1106h653v-20h-633v-586h467v-20h-467v-480h-20z" />
<glyph unicode="g" horiz-adv-x="1449" d="M342 449v573q0 76 14.5 124.5t51.5 82t100 47.5t162 14h354v-20h-354q-122 0 -188.5 -25t-93 -77t-26.5 -146v-573q0 -92 30 -143.5t105.5 -76t213.5 -24.5h387v391h20v-412h-407q-91 0 -154 9.5t-105.5 28.5t-66.5 52t-33.5 74t-9.5 101z" />
<glyph unicode="h" horiz-adv-x="1554" d="M362 184v1106h21v-542h786v542h21v-1106h-21v543h-786v-543h-21z" />
<glyph unicode="i" horiz-adv-x="1239" d="M293 184v21h317v1065h-317v20h651v-20h-313v-1065h313v-21h-651z" />
<glyph unicode="j" horiz-adv-x="1409" d="M297 436v162h20v-162q0 -126 82 -191t283 -65q99 0 168 18t108.5 53t56.5 80t17 105v854h21v-854q0 -64 -17.5 -112t-58.5 -86t-115 -58t-180 -20q-112 0 -189 19.5t-119 57.5t-59.5 86t-17.5 113z" />
<glyph unicode="k" horiz-adv-x="1527" d="M365 184v1106h20v-545h444l236 545h22l-235 -545h84q128 0 188 -47t60 -153v-361h-21v361q0 96 -55 138t-172 42h-551v-541h-20z" />
<glyph unicode="l" horiz-adv-x="1423" d="M365 184v1106h20v-1085h713v403h20v-424h-753z" />
<glyph unicode="m" horiz-adv-x="1738" d="M358 184v1043q0 33 13 48t41 15h34q41 0 62 -35l250 -381q38 -58 53.5 -72t50.5 -14t51 14t54 72l250 381q21 35 59 35h35q29 0 42 -14.5t13 -48.5v-1043h-20v1043q0 43 -35 43h-31q-30 0 -47 -29l-250 -377q-23 -35 -32 -47.5t-24 -27t-29 -18t-36 -3.5q-41 0 -60.5 17 t-60.5 79l-249 377q-17 29 -50 29h-30q-33 0 -33 -43v-1043h-21z" />
<glyph unicode="n" horiz-adv-x="1542" d="M356 184v1084q0 11 7.5 17.5t17.5 6.5q13 0 31 -18l753 -848v864h21v-1106h-21v211l-774 869q-6 6 -10 6t-4 -6v-1080h-21z" />
<glyph unicode="o" d="M340 434v604q0 65 19.5 113.5t65 86.5t127.5 57.5t200 19.5t200.5 -19.5t128.5 -57.5t66 -86.5t20 -113.5v-604q0 -65 -20 -113.5t-66 -86t-128.5 -57t-200.5 -19.5t-200 19t-127.5 57t-65 86.5t-19.5 113.5zM360 434q0 -48 11.5 -86t39 -70.5t71.5 -54t112 -33.5 t158 -12t158 12t113 33.5t73 54t39.5 70.5t11.5 86v604q0 48 -11.5 86t-39.5 70.5t-73 54t-113 33.5t-158 12t-158 -12t-112 -33.5t-71.5 -54t-39 -70.5t-11.5 -86v-604z" />
<glyph unicode="p" horiz-adv-x="1396" d="M371 184v1106h442q94 0 156.5 -20t94.5 -60t44 -86.5t12 -111.5v-152q0 -65 -12 -110.5t-44 -84.5t-94.5 -58t-156.5 -19h-422v-404h-20zM391 608h422q71 0 122.5 12.5t83 33.5t50 54t25 68.5t6.5 83.5v152q0 48 -6.5 84t-25 70t-50 56t-83 35t-122.5 13h-422v-662z" />
<glyph unicode="q" d="M340 434v604q0 65 19.5 113.5t65 86.5t127.5 57.5t200 19.5t200.5 -19.5t128.5 -57.5t66 -86.5t20 -113.5v-604q0 -64 -19.5 -112.5t-65 -86t-125.5 -57t-195 -20.5v-158h-21v158q-115 1 -194.5 20.5t-124 57.5t-63.5 85.5t-19 112.5zM360 434q0 -48 11.5 -86t39 -70.5 t71.5 -54t112 -33.5t158 -12t158 12t113 33.5t73 54t39.5 70.5t11.5 86v604q0 48 -11.5 86t-39.5 70.5t-73 54t-113 33.5t-158 12t-158 -12t-112 -33.5t-71.5 -54t-39 -70.5t-11.5 -86v-604z" />
<glyph unicode="r" horiz-adv-x="1521" d="M362 184v1106h467q116 0 175 -63.5t59 -169.5v-142q0 -101 -26.5 -158t-96.5 -79h23q247 0 247 -219v-275h-20v275q0 102 -55.5 151t-171.5 49h-580v-475h-21zM383 678h446q122 0 167.5 57t45.5 178v144q0 99 -53.5 156t-159.5 57h-446v-592z" />
<glyph unicode="s" horiz-adv-x="1331" d="M289 184v21h510q94 0 150.5 51.5t56.5 134.5v119q0 90 -31 128.5t-94 51.5l-432 88q-60 12 -90.5 45.5t-30.5 112.5v168q0 82 57.5 134t151.5 52h454v-20h-454q-85 0 -137 -46.5t-52 -119.5v-168q0 -67 26.5 -97t78.5 -40l432 -88q69 -13 105 -57t36 -144v-119 q0 -92 -62 -149.5t-165 -57.5h-510z" />
<glyph unicode="t" horiz-adv-x="1343" d="M242 1270v20h860v-20h-420v-1086h-20v1086h-420z" />
<glyph unicode="u" horiz-adv-x="1527" d="M356 436v854h21v-854q0 -61 18.5 -105.5t61.5 -79.5t120 -53t189 -18t189.5 18t121 53t62 79.5t18.5 105.5v854h21v-854q0 -65 -19.5 -113.5t-65 -86.5t-127.5 -57t-200 -19t-199.5 19t-126.5 57t-64.5 86t-19.5 114z" />
<glyph unicode="v" horiz-adv-x="1495" d="M342 848v442h20v-442q0 -112 33 -191l135 -327q14 -34 22 -51t23.5 -37.5t35.5 -28.5t48 -8h181q28 0 48 8t35.5 28.5t23.5 37.5t22 51l135 327q33 79 33 191v442h20v-442q0 -121 -33 -199l-135 -327q-29 -71 -59.5 -104.5t-89.5 -33.5h-181q-59 0 -89.5 33.5 t-59.5 104.5l-135 327q-33 78 -33 199z" />
<glyph unicode="w" horiz-adv-x="1701" d="M344 686v604h21v-602q0 -156 10 -207l51 -233q3 -18 16.5 -30.5t30.5 -12.5h10q15 0 22 0.5t17.5 7.5t16.5 20l168 377q26 58 46.5 77.5t53.5 19.5h92q33 0 53.5 -19.5t46.5 -77.5l168 -377q6 -13 16.5 -20t17.5 -7.5t22 -0.5h10q17 0 30.5 12.5t16.5 30.5l51 233 q10 51 10 207v602h21v-604q0 -156 -10 -207l-52 -231q-14 -64 -67 -64h-14q-54 0 -68 35l-168 381q-24 53 -41 69.5t-43 16.5h-92q-26 0 -43 -16.5t-41 -69.5l-168 -381q-14 -35 -68 -35h-14q-53 0 -67 64l-52 231q-10 51 -10 207z" />
<glyph unicode="x" d="M342 184v92q0 43 0.5 60t8 47t22.5 51l245 336l-245 332q-14 20 -21.5 49t-8.5 49.5t-1 59.5v30h20v-30q0 -38 1 -57.5t7.5 -47t20.5 -45.5l246 -332h244l237 332q29 42 29 150v30h20v-30q0 -41 -1 -60t-8 -48.5t-21 -49.5l-242 -336l242 -332q14 -20 21 -49.5t8 -48.5 t1 -60v-92h-20v92q0 38 -1 57.5t-7.5 47t-20.5 45.5l-239 332h-246l-242 -332q-29 -40 -29 -150v-92h-20z" />
<glyph unicode="y" horiz-adv-x="1443" d="M313 1055v235h21v-235q0 -107 28 -150l199 -276q50 -74 131 -74h56q76 0 133 74l204 276q14 17 20.5 44.5t7.5 47.5t1 58v235h21v-235q0 -43 -0.5 -60.5t-8 -47.5t-22.5 -50l-205 -276q-34 -45 -69.5 -65.5t-81.5 -20.5h-15v-351h-20v351h-21q-86 0 -149 86l-199 276 q-14 19 -21.5 48t-8.5 50t-1 60z" />
<glyph unicode="z" horiz-adv-x="1351" d="M315 1270v20h625q34 0 49 -16t15 -51v-33q0 -32 -35 -76l-600 -770q-12 -15 -17 -22t-8.5 -17.5t-3.5 -23.5v-29q0 -47 43 -47h690v-21h-690q-34 0 -49 16.5t-15 51.5v33q0 31 35 75l600 770q17 21 23 33t6 31v29q0 47 -43 47h-625z" />
<glyph unicode="{" horiz-adv-x="931" d="M264 705v57q0 122 131 141v316q0 128 61 179.5t199 51.5v-20q-127 0 -183 -46.5t-56 -164.5v-332q-71 -7 -101 -37t-30 -88v-57q0 -58 30.5 -88t100.5 -37v-326q0 -107 59 -159t180 -52v-20q-133 0 -196.5 57t-63.5 174v309q-131 19 -131 142z" />
<glyph unicode="|" horiz-adv-x="710" d="M346 0v1475h21v-1475h-21z" />
<glyph unicode="}" horiz-adv-x="931" d="M276 23v20q122 0 181 52t59 159v326q70 7 100.5 37t30.5 88v57q0 58 -30 88t-101 37v332q0 118 -56.5 164.5t-183.5 46.5v20q138 0 199.5 -51.5t61.5 -179.5v-316q131 -19 131 -141v-57q0 -123 -131 -142v-309q0 -117 -64 -174t-197 -57z" />
<glyph unicode="~" horiz-adv-x="1503" d="M328 754v22q75 21 142 21.5t202 -19.5l82 -10l47 -6q178 -28 231 -29q68 0 144 21v-23q-21 -5 -39 -9t-39 -6t-34 -3.5t-37.5 0t-36 2t-42 4.5t-43 6t-52 8t-56.5 8l-47 7l-82 10q-135 20 -198.5 18.5t-141.5 -22.5z" />
<glyph unicode="&#xa1;" horiz-adv-x="866" d="M424 184v570h20v-570h-20zM424 1223v88h20v-88h-20z" />
<glyph unicode="&#xa2;" horiz-adv-x="1286" d="M340 532v404q0 76 14.5 124.5t51.5 82t100 47.5t162 14h65v189h21v-189h256v-20h-342q-122 0 -188.5 -25t-93 -77t-26.5 -146v-404q0 -93 26 -143.5t92.5 -75t189.5 -24.5h342v-21h-256v-186h-21v186h-65q-132 0 -203.5 27.5t-98 82t-26.5 154.5z" />
<glyph unicode="&#xa3;" horiz-adv-x="1423" d="M225 715v20h140v322q0 128 70 180.5t210 52.5h279v-20h-279q-129 0 -194.5 -47.5t-65.5 -165.5v-322h209v-20h-209v-510h713v280h20v-301h-753v531h-140z" />
<glyph unicode="&#xa4;" horiz-adv-x="1681" d="M328 238l192 196q-35 58 -35 160v291q0 109 37 166l-190 194l16 12l187 -190q79 98 311 98q234 0 309 -100l188 192l17 -12l-193 -196q37 -57 37 -164v-291q0 -102 -35 -158l195 -198l-16 -13l-189 193q-80 -103 -313 -103q-237 0 -314 103l-188 -193zM506 594 q0 -63 14.5 -107t50.5 -80t104.5 -53.5t170.5 -17.5q101 0 169 17.5t104 53.5t50.5 80t14.5 107v291q0 63 -14.5 108t-50.5 81t-104 53.5t-169 17.5q-82 0 -142.5 -12t-98 -33.5t-60 -55t-31 -71.5t-8.5 -88v-291z" />
<glyph unicode="&#xa5;" horiz-adv-x="1439" d="M313 1147v143h21v-143q0 -67 8.5 -105.5t32.5 -80.5l176 -236q31 -40 59 -56t66 -16h96q38 0 66 16t59 56l176 236q24 42 32.5 80.5t8.5 105.5v143h21v-143q0 -71 -9 -112.5t-36 -86.5l-177 -235q-33 -45 -64.5 -62.5t-76.5 -17.5h-39v-184h330v-21h-330v-244h-20v244 h-334v21h334v184h-37q-45 0 -76.5 17.5t-64.5 62.5l-177 235q-27 45 -36 86.5t-9 112.5z" />
<glyph unicode="&#xa6;" horiz-adv-x="710" d="M346 0v471h21v-471h-21zM346 1004v471h21v-471h-21z" />
<glyph unicode="&#xa7;" horiz-adv-x="1331" d="M309 147v21h432q166 0 234.5 53.5t68.5 190.5v120h-415q-157 0 -233.5 75t-76.5 198v258q0 147 73.5 205.5t250.5 58.5h350v-20h-350q-166 0 -234.5 -53.5t-68.5 -190.5v-121h416q157 0 233 -74t76 -198v-258q0 -148 -73.5 -206.5t-250.5 -58.5h-432zM340 805 q0 -114 72 -183t217 -69h415v117q0 115 -71 183.5t-217 68.5h-416v-117z" />
<glyph unicode="&#xa8;" horiz-adv-x="1024" d="M233 1700v96h21v-96h-21zM762 1700v96h20v-96h-20z" />
<glyph unicode="&#xa9;" horiz-adv-x="1775" d="M215 307v856q0 51 5 90t21.5 84t45.5 77.5t80 64t120.5 51t171.5 31.5t230 12t229.5 -12t171.5 -31.5t120.5 -51t79 -64t45 -77.5t21.5 -84t5 -90v-856q0 -70 -14 -124t-57.5 -109t-115.5 -91t-195 -58.5t-290 -22.5q-168 0 -290.5 20.5t-195.5 54.5t-116 88t-57.5 110.5 t-14.5 131.5zM236 307q0 -72 15.5 -126.5t58.5 -105t114.5 -83t188.5 -51.5t276 -19q158 0 276 21t188.5 55.5t113.5 86t58 104t15 118.5v856q0 49 -5 86.5t-22 80t-45.5 73.5t-77.5 60.5t-116.5 48t-165 29.5t-219.5 11t-219.5 -11t-165.5 -29.5t-117 -48t-78 -61 t-45.5 -73.5t-22 -79.5t-5.5 -86.5v-856zM641 547v411q0 107 52 150t188 43h247v-18h-247q-125 0 -172 -39t-47 -136v-411q0 -96 46.5 -134t172.5 -38h247v-21h-247q-138 0 -189 43t-51 150z" />
<glyph unicode="&#xaa;" horiz-adv-x="1064" d="M217 133v17h631v-17h-631zM231 553v307q0 75 25 139l92 238q9 24 16 38t19 29t29 22t41 7h143q30 0 51 -14.5t31 -32t24 -51.5l101 -236q24 -61 24 -139v-307h-18v246h-559v-246h-19zM250 817h559v43q0 63 -25 133l-98 236q-12 26 -17 36t-16.5 25t-25 20t-33.5 5h-137 q-39 0 -56.5 -19.5t-35.5 -64.5l-93 -238q-22 -61 -22 -133v-43z" />
<glyph unicode="&#xab;" horiz-adv-x="1662" d="M289 639v152q0 66 30.5 95.5t96.5 49.5l202 61v-20l-198 -62q-57 -18 -84 -42.5t-27 -81.5v-152q0 -57 27.5 -83t81.5 -42l200 -59v-21l-204 60q-63 17 -94 47.5t-31 97.5zM1047 639v152q0 66 30.5 95.5t96.5 49.5l202 61v-20l-198 -62q-56 -16 -83.5 -41.5t-27.5 -82.5 v-152q0 -58 28 -84.5t81 -40.5l200 -59v-21l-205 60q-63 17 -93.5 47.5t-30.5 97.5z" />
<glyph unicode="&#xac;" horiz-adv-x="1503" d="M328 809v20h848v-516h-21v496h-827z" />
<glyph unicode="&#xad;" horiz-adv-x="860" d="M266 727v21h328v-21h-328z" />
<glyph unicode="&#xae;" horiz-adv-x="1146" d="M166 713v491q0 53 10.5 91.5t37.5 72t72.5 54.5t117 32.5t169.5 11.5q123 0 204.5 -17t125.5 -52.5t61 -81t17 -111.5v-491q0 -65 -17 -109.5t-61 -79.5t-125.5 -52t-204.5 -17q-98 0 -169.5 11.5t-117 32t-72.5 54t-37.5 71.5t-10.5 89zM186 713q0 -81 32 -131 t118.5 -78.5t236.5 -28.5q114 0 190.5 15t119.5 46.5t60.5 73.5t17.5 103v491q0 84 -32 134.5t-118.5 79t-237.5 28.5q-150 0 -236.5 -28.5t-118.5 -79.5t-32 -134v-491zM403 739v467h162q68 0 102.5 -30t34.5 -82v-60q0 -62 -38 -82q98 -3 98 -96v-117h-21v117 q0 37 -22.5 56.5t-63.5 19.5h-231v-193h-21zM424 952h141q65 0 91 20t26 62v60q0 44 -29.5 68t-87.5 24h-141v-234z" />
<glyph unicode="&#xaf;" horiz-adv-x="1024" d="M266 1714v21h490v-21h-490z" />
<glyph unicode="&#xb0;" horiz-adv-x="989" d="M233 926v264q0 91 57 127.5t206 36.5q150 0 206 -36.5t56 -127.5v-264q0 -91 -56 -126.5t-206 -35.5q-149 0 -206 36t-57 126zM254 926q0 -79 53.5 -110.5t188.5 -31.5q136 0 188.5 31t52.5 111v264q0 80 -52.5 111.5t-188.5 31.5q-135 0 -188.5 -31.5t-53.5 -111.5v-264 z" />
<glyph unicode="&#xb1;" horiz-adv-x="1503" d="M328 182v21h848v-21h-848zM328 854v20h413v414h21v-414h414v-20h-414v-414h-21v414h-413z" />
<glyph unicode="&#xb2;" horiz-adv-x="993" d="M240 545v231q0 55 18 81.5t66 41.5l344 113q39 17 39 67v135q0 62 -35 86.5t-105 24.5h-297v18h297q81 0 120.5 -28.5t39.5 -100.5v-135q0 -65 -55 -84l-342 -114q-41 -14 -56.5 -36t-15.5 -69v-213h498v-18h-516z" />
<glyph unicode="&#xb3;" horiz-adv-x="991" d="M233 545v18h326q102 0 139 32.5t37 98.5v101q0 74 -37.5 109.5t-119.5 35.5h-224v18h121q53 0 87 10.5t49.5 31t20.5 41t5 51.5v100q0 63 -38.5 98t-137.5 35h-228v18h228q115 0 154.5 -40.5t39.5 -116.5v-94q0 -34 -5 -57.5t-28 -48t-65 -32.5h23q92 0 133 -39.5 t41 -119.5v-101q0 -76 -39.5 -112.5t-155.5 -36.5h-326z" />
<glyph unicode="&#xb4;" horiz-adv-x="1024" d="M266 1714v21l490 61v-20z" />
<glyph unicode="&#xb5;" horiz-adv-x="1460" d="M348 0v983h21v-547q0 -61 17.5 -105.5t58 -79.5t113.5 -53t177 -18q203 0 287 66t84 190v547h20v-547q0 -65 -19 -113.5t-63 -86t-121.5 -57t-187.5 -19.5q-306 0 -366 166v-326h-21z" />
<glyph unicode="&#xb6;" horiz-adv-x="1396" d="M252 870v142q0 65 12 111.5t44 86.5t94.5 60t156.5 20h516v-1106h-20v414h-467v-414h-21v414h-8q-94 0 -156.5 19t-94.5 58t-44 84.5t-12 110.5zM272 870q0 -48 6.5 -83.5t25 -68.5t50 -54t83 -33.5t122.5 -12.5h496v652h-496q-71 0 -122.5 -13t-83 -35t-50 -56t-25 -70 t-6.5 -84v-142z" />
<glyph unicode="&#xb7;" horiz-adv-x="745" d="M362 635v194h21v-194h-21z" />
<glyph unicode="&#xb8;" horiz-adv-x="1024" d="M459 -74l98 273l21 -2l-99 -271h-20z" />
<glyph unicode="&#xb9;" horiz-adv-x="935" d="M231 537v16h248v772h-219v18h238v-788h225v-18h-492z" />
<glyph unicode="&#xba;" horiz-adv-x="1075" d="M217 133v17h631v-17h-631zM244 729v428q0 98 65 148.5t228 50.5q164 0 230.5 -50.5t66.5 -148.5v-428q0 -96 -66.5 -146.5t-230.5 -50.5q-84 0 -142 13.5t-90.5 40.5t-46.5 61.5t-14 81.5zM262 729q0 -86 62 -132t213 -46q152 0 215 46t63 132v428q0 86 -63 133t-215 47 q-151 0 -213 -47t-62 -133v-428z" />
<glyph unicode="&#xbb;" horiz-adv-x="1662" d="M287 434v21l200 59q53 14 81 40.5t28 84.5v152q0 57 -27.5 82.5t-83.5 41.5l-198 62v20l202 -61q66 -20 96.5 -49.5t30.5 -95.5v-152q0 -67 -30.5 -97.5t-93.5 -47.5zM1044 434v21l201 59q54 16 81.5 42t27.5 83v152q0 57 -27 81.5t-84 42.5l-199 62v20l203 -61 q66 -20 96.5 -49.5t30.5 -95.5v-152q0 -67 -31 -97.5t-94 -47.5z" />
<glyph unicode="&#xbc;" horiz-adv-x="2463" d="M231 537v16h248v772h-219v18h238v-788h225v-18h-492zM1073 184l205 1106h20l-204 -1106h-21zM1669 547v381h21v-381q0 -137 145 -137h350v518h21v-797h-21v260h-350q-85 0 -125.5 38.5t-40.5 117.5z" />
<glyph unicode="&#xbd;" horiz-adv-x="2375" d="M231 537v16h248v772h-219v18h238v-788h225v-18h-492zM1073 184l205 1106h20l-204 -1106h-21zM1622 131v231q0 55 18 81.5t66 41.5l344 113q39 17 39 68v135q0 62 -34.5 86t-104.5 24h-297v19h297q81 0 120 -28.5t39 -100.5v-135q0 -65 -55 -84l-342 -115 q-41 -14 -56.5 -36t-15.5 -69v-212h498v-19h-516z" />
<glyph unicode="&#xbe;" horiz-adv-x="2484" d="M233 545v18h326q102 0 139 32.5t37 98.5v101q0 74 -37.5 109.5t-119.5 35.5h-224v18h121q53 0 87 10.5t49.5 31t20.5 41t5 51.5v100q0 63 -38.5 98t-137.5 35h-228v18h228q115 0 154.5 -40.5t39.5 -116.5v-94q0 -34 -5 -57.5t-28 -48t-65 -32.5h23q92 0 133 -39.5 t41 -119.5v-101q0 -76 -39.5 -112.5t-155.5 -36.5h-326zM1094 184l204 1106h21l-205 -1106h-20zM1690 547v381h20v-381q0 -137 145 -137h351v518h20v-797h-20v260h-351q-85 0 -125 38.5t-40 117.5z" />
<glyph unicode="&#xbf;" horiz-adv-x="1343" d="M328 375v233q0 58 30 81t86 30l443 61l4 -22l-442 -60q-24 -4 -38 -8t-30.5 -13t-24.5 -26t-8 -43v-233q0 -91 49 -128.5t123 -37.5h551v-21h-551q-38 0 -70 8.5t-60.5 28.5t-45 58t-16.5 92zM819 1223v88h21v-88h-21z" />
<glyph unicode="&#xc0;" horiz-adv-x="1495" d="M328 184v437q0 111 34 198l132 336q15 37 24 54.5t26 40t41 31.5t58 9h201q33 0 56 -9t40 -31t26 -40.5t25 -56.5l142 -334q34 -87 34 -198v-437h-20v353h-799v-353h-20zM348 557h799v64q0 99 -33 190l-141 334q-15 36 -23 51.5t-23.5 36.5t-35.5 29t-47 8h-201 q-30 0 -51 -8.5t-36 -28t-23 -36.5t-21 -50l-131 -336q-33 -91 -33 -190v-64zM502 1776v20l489 -61v-21z" />
<glyph unicode="&#xc1;" horiz-adv-x="1495" d="M328 184v437q0 111 34 198l132 336q15 37 24 54.5t26 40t41 31.5t58 9h201q33 0 56 -9t40 -31t26 -40.5t25 -56.5l142 -334q34 -87 34 -198v-437h-20v353h-799v-353h-20zM348 557h799v64q0 99 -33 190l-141 334q-15 36 -23 51.5t-23.5 36.5t-35.5 29t-47 8h-201 q-30 0 -51 -8.5t-36 -28t-23 -36.5t-21 -50l-131 -336q-33 -91 -33 -190v-64zM502 1714v21l489 61v-20z" />
<glyph unicode="&#xc2;" horiz-adv-x="1495" d="M328 184v437q0 111 34 198l132 336q15 37 24 54.5t26 40t41 31.5t58 9h201q33 0 56 -9t40 -31t26 -40.5t25 -56.5l142 -334q34 -87 34 -198v-437h-20v353h-799v-353h-20zM348 557h799v64q0 99 -33 190l-141 334q-15 36 -23 51.5t-23.5 36.5t-35.5 29t-47 8h-201 q-30 0 -51 -8.5t-36 -28t-23 -36.5t-21 -50l-131 -336q-33 -91 -33 -190v-64zM502 1741v22l170 56q50 12 73 12q24 0 74 -12l170 -56v-22l-178 57q-40 12 -66 12q-25 0 -65 -12z" />
<glyph unicode="&#xc3;" horiz-adv-x="1495" d="M328 184v437q0 111 34 198l132 336q15 37 24 54.5t26 40t41 31.5t58 9h201q33 0 56 -9t40 -31t26 -40.5t25 -56.5l142 -334q34 -87 34 -198v-437h-20v353h-799v-353h-20zM348 557h799v64q0 99 -33 190l-141 334q-15 36 -23 51.5t-23.5 36.5t-35.5 29t-47 8h-201 q-30 0 -51 -8.5t-36 -28t-23 -36.5t-21 -50l-131 -336q-33 -91 -33 -190v-64zM502 1739v22q56 7 188 -10l58 -8l32 -4q151 -23 209 -17v-20q-64 -7 -213 16l-33 4l-57 9q-122 19 -184 8z" />
<glyph unicode="&#xc4;" horiz-adv-x="1495" d="M328 184v437q0 111 34 198l132 336q15 37 24 54.5t26 40t41 31.5t58 9h201q33 0 56 -9t40 -31t26 -40.5t25 -56.5l142 -334q34 -87 34 -198v-437h-20v353h-799v-353h-20zM348 557h799v64q0 99 -33 190l-141 334q-15 36 -23 51.5t-23.5 36.5t-35.5 29t-47 8h-201 q-30 0 -51 -8.5t-36 -28t-23 -36.5t-21 -50l-131 -336q-33 -91 -33 -190v-64zM469 1700v96h20v-96h-20zM997 1700v96h21v-96h-21z" />
<glyph unicode="&#xc5;" horiz-adv-x="1495" d="M328 184v437q0 111 34 198l132 336q15 37 24 54.5t26 40t41 31.5t58 9h201q33 0 56 -9t40 -31t26 -40.5t25 -56.5l142 -334q34 -87 34 -198v-437h-20v353h-799v-353h-20zM348 557h799v64q0 99 -33 190l-141 334q-15 36 -23 51.5t-23.5 36.5t-35.5 29t-47 8h-201 q-30 0 -51 -8.5t-36 -28t-23 -36.5t-21 -50l-131 -336q-33 -91 -33 -190v-64zM461 1556v93q0 40 6.5 69t25 56t50 44t83.5 27t124 10q89 0 148 -14.5t89.5 -43.5t42.5 -64t12 -84v-93q0 -50 -11.5 -84.5t-42.5 -63t-90 -42.5t-148 -14t-147.5 14t-89 42.5t-41.5 63t-11 84.5 zM481 1556q0 -94 57 -139t212 -45q106 0 167.5 23t83 61.5t21.5 99.5v93q0 45 -12 77t-41.5 58t-84 38.5t-134.5 12.5t-134 -12.5t-83 -38t-40.5 -57.5t-11.5 -78v-93z" />
<glyph unicode="&#xc6;" horiz-adv-x="2058" d="M324 184v412q0 125 22 188l152 416q21 53 43.5 71.5t60.5 18.5h1172v-20h-629v-512h463v-21h-463v-532h629v-21h-650v355h-780v-355h-20zM344 559h780v711h-522q-31 0 -50 -17t-34 -61l-151 -416q-23 -61 -23 -180v-37z" />
<glyph unicode="&#xc7;" horiz-adv-x="1286" d="M340 449v573q0 76 14.5 124.5t51.5 82t100 47.5t162 14h342v-20h-342q-122 0 -188.5 -25t-93 -77t-26.5 -146v-573q0 -69 13.5 -113.5t48.5 -75t94 -43t152 -12.5h342v-21h-181l-94 -258h-20l92 258h-139q-100 0 -163.5 14t-100 47.5t-50.5 81t-14 122.5z" />
<glyph unicode="&#xc8;" horiz-adv-x="1339" d="M365 184v1106h690v-20h-670v-514h504v-21h-504v-530h670v-21h-690zM424 1776v20l489 -61v-21z" />
<glyph unicode="&#xc9;" horiz-adv-x="1339" d="M365 184v1106h690v-20h-670v-514h504v-21h-504v-530h670v-21h-690zM485 1714v21l490 61v-20z" />
<glyph unicode="&#xca;" horiz-adv-x="1339" d="M365 184v1106h690v-20h-670v-514h504v-21h-504v-530h670v-21h-690zM444 1741v22l170 56q50 12 74 12t74 -12l170 -56v-22l-178 57q-40 12 -66 12q-25 0 -65 -12z" />
<glyph unicode="&#xcb;" horiz-adv-x="1339" d="M365 184v1106h690v-20h-670v-514h504v-21h-504v-530h670v-21h-690zM432 1700v96h21v-96h-21zM961 1700v96h20v-96h-20z" />
<glyph unicode="&#xcc;" horiz-adv-x="1239" d="M293 184v21h317v1065h-317v20h651v-20h-313v-1065h313v-21h-651zM373 1776v20l489 -61v-21z" />
<glyph unicode="&#xcd;" horiz-adv-x="1239" d="M293 184v21h317v1065h-317v20h651v-20h-313v-1065h313v-21h-651zM373 1714v21l489 61v-20z" />
<glyph unicode="&#xce;" horiz-adv-x="1239" d="M293 184v21h317v1065h-317v20h651v-20h-313v-1065h313v-21h-651zM373 1741v22l170 56q50 12 73 12q24 0 74 -12l170 -56v-22l-178 57q-40 12 -66 12q-25 0 -65 -12z" />
<glyph unicode="&#xcf;" horiz-adv-x="1239" d="M293 184v21h317v1065h-317v20h651v-20h-313v-1065h313v-21h-651zM340 1700v96h20v-96h-20zM868 1700v96h21v-96h-21z" />
<glyph unicode="&#xd0;" horiz-adv-x="1548" d="M225 715v20h156v555h500q101 0 168 -21t100.5 -62.5t46 -88.5t12.5 -112v-543q0 -52 -6.5 -90t-27 -75.5t-56 -61t-95 -38t-142.5 -14.5h-500v531h-156zM401 205h480q95 0 158 18.5t94.5 55.5t43 79.5t11.5 104.5v543q0 61 -12 105t-44 82t-94.5 57.5t-156.5 19.5h-480 v-535h193v-20h-193v-510z" />
<glyph unicode="&#xd1;" horiz-adv-x="1542" d="M356 184v1084q0 11 7.5 17.5t17.5 6.5q13 0 31 -18l753 -848v864h21v-1106h-21v211l-774 869q-6 6 -10 6t-4 -6v-1080h-21zM524 1739v22q57 7 189 -10l57 -8l33 -4q151 -23 209 -17v-20q-64 -7 -213 16l-33 4l-57 9q-123 19 -185 8z" />
<glyph unicode="&#xd2;" d="M340 434v604q0 65 19.5 113.5t65 86.5t127.5 57.5t200 19.5t200.5 -19.5t128.5 -57.5t66 -86.5t20 -113.5v-604q0 -65 -20 -113.5t-66 -86t-128.5 -57t-200.5 -19.5t-200 19t-127.5 57t-65 86.5t-19.5 113.5zM360 434q0 -48 11.5 -86t39 -70.5t71.5 -54t112 -33.5 t158 -12t158 12t113 33.5t73 54t39.5 70.5t11.5 86v604q0 48 -11.5 86t-39.5 70.5t-73 54t-113 33.5t-158 12t-158 -12t-112 -33.5t-71.5 -54t-39 -70.5t-11.5 -86v-604zM508 1776v20l489 -61v-21z" />
<glyph unicode="&#xd3;" d="M340 434v604q0 65 19.5 113.5t65 86.5t127.5 57.5t200 19.5t200.5 -19.5t128.5 -57.5t66 -86.5t20 -113.5v-604q0 -65 -20 -113.5t-66 -86t-128.5 -57t-200.5 -19.5t-200 19t-127.5 57t-65 86.5t-19.5 113.5zM360 434q0 -48 11.5 -86t39 -70.5t71.5 -54t112 -33.5 t158 -12t158 12t113 33.5t73 54t39.5 70.5t11.5 86v604q0 48 -11.5 86t-39.5 70.5t-73 54t-113 33.5t-158 12t-158 -12t-112 -33.5t-71.5 -54t-39 -70.5t-11.5 -86v-604zM508 1714v21l489 61v-20z" />
<glyph unicode="&#xd4;" d="M340 434v604q0 65 19.5 113.5t65 86.5t127.5 57.5t200 19.5t200.5 -19.5t128.5 -57.5t66 -86.5t20 -113.5v-604q0 -65 -20 -113.5t-66 -86t-128.5 -57t-200.5 -19.5t-200 19t-127.5 57t-65 86.5t-19.5 113.5zM360 434q0 -48 11.5 -86t39 -70.5t71.5 -54t112 -33.5 t158 -12t158 12t113 33.5t73 54t39.5 70.5t11.5 86v604q0 48 -11.5 86t-39.5 70.5t-73 54t-113 33.5t-158 12t-158 -12t-112 -33.5t-71.5 -54t-39 -70.5t-11.5 -86v-604zM508 1741v22l170 56q50 12 74 12q23 0 73 -12l170 -56v-22l-178 57q-40 12 -65 12q-26 0 -66 -12z" />
<glyph unicode="&#xd5;" d="M340 434v604q0 65 19.5 113.5t65 86.5t127.5 57.5t200 19.5t200.5 -19.5t128.5 -57.5t66 -86.5t20 -113.5v-604q0 -65 -20 -113.5t-66 -86t-128.5 -57t-200.5 -19.5t-200 19t-127.5 57t-65 86.5t-19.5 113.5zM360 434q0 -48 11.5 -86t39 -70.5t71.5 -54t112 -33.5 t158 -12t158 12t113 33.5t73 54t39.5 70.5t11.5 86v604q0 48 -11.5 86t-39.5 70.5t-73 54t-113 33.5t-158 12t-158 -12t-112 -33.5t-71.5 -54t-39 -70.5t-11.5 -86v-604zM508 1739v22q56 7 188 -10l58 -8l32 -4q151 -23 209 -17v-20q-64 -7 -213 16l-32 4l-58 9 q-122 19 -184 8z" />
<glyph unicode="&#xd6;" d="M340 434v604q0 65 19.5 113.5t65 86.5t127.5 57.5t200 19.5t200.5 -19.5t128.5 -57.5t66 -86.5t20 -113.5v-604q0 -65 -20 -113.5t-66 -86t-128.5 -57t-200.5 -19.5t-200 19t-127.5 57t-65 86.5t-19.5 113.5zM360 434q0 -48 11.5 -86t39 -70.5t71.5 -54t112 -33.5 t158 -12t158 12t113 33.5t73 54t39.5 70.5t11.5 86v604q0 48 -11.5 86t-39.5 70.5t-73 54t-113 33.5t-158 12t-158 -12t-112 -33.5t-71.5 -54t-39 -70.5t-11.5 -86v-604zM475 1700v96h21v-96h-21zM1004 1700v96h20v-96h-20z" />
<glyph unicode="&#xd7;" horiz-adv-x="1503" d="M444 444l293 293l-293 293l15 14l293 -292l292 292l15 -14l-293 -293l293 -293l-15 -14l-292 293l-293 -293z" />
<glyph unicode="&#xd8;" d="M319 434v604q0 66 20 114t67.5 86t134 57.5t211.5 19.5q130 0 227 -23l59 142h23l-64 -148q103 -31 147 -93.5t44 -154.5v-604q0 -66 -20.5 -114t-68.5 -86t-135 -57t-212 -19q-132 0 -222 22l-59 -139h-22l61 145q-103 29 -147 91.5t-44 156.5zM340 434 q0 -86 40.5 -143.5t137.5 -85.5l453 1067q-90 22 -219 22q-119 0 -201.5 -18t-127.5 -53t-64 -79.5t-19 -105.5v-604zM539 199q96 -21 213 -21q119 0 201.5 18t128.5 53t65.5 79.5t19.5 105.5v604q0 177 -178 228z" />
<glyph unicode="&#xd9;" horiz-adv-x="1527" d="M356 436v854h21v-854q0 -61 18.5 -105.5t61.5 -79.5t120 -53t189 -18t189.5 18t121 53t62 79.5t18.5 105.5v854h21v-854q0 -65 -19.5 -113.5t-65 -86.5t-127.5 -57t-200 -19t-199.5 19t-126.5 57t-64.5 86t-19.5 114zM498 1776v20l489 -61v-21z" />
<glyph unicode="&#xda;" horiz-adv-x="1527" d="M356 436v854h21v-854q0 -61 18.5 -105.5t61.5 -79.5t120 -53t189 -18t189.5 18t121 53t62 79.5t18.5 105.5v854h21v-854q0 -65 -19.5 -113.5t-65 -86.5t-127.5 -57t-200 -19t-199.5 19t-126.5 57t-64.5 86t-19.5 114zM539 1714v21l489 61v-20z" />
<glyph unicode="&#xdb;" horiz-adv-x="1527" d="M356 436v854h21v-854q0 -61 18.5 -105.5t61.5 -79.5t120 -53t189 -18t189.5 18t121 53t62 79.5t18.5 105.5v854h21v-854q0 -65 -19.5 -113.5t-65 -86.5t-127.5 -57t-200 -19t-199.5 19t-126.5 57t-64.5 86t-19.5 114zM518 1741v22l170 56q50 12 74 12t74 -12l170 -56v-22 l-179 57q-40 12 -65 12q-26 0 -66 -12z" />
<glyph unicode="&#xdc;" horiz-adv-x="1527" d="M356 436v854h21v-854q0 -61 18.5 -105.5t61.5 -79.5t120 -53t189 -18t189.5 18t121 53t62 79.5t18.5 105.5v854h21v-854q0 -65 -19.5 -113.5t-65 -86.5t-127.5 -57t-200 -19t-199.5 19t-126.5 57t-64.5 86t-19.5 114zM485 1700v96h21v-96h-21zM1014 1700v96h20v-96h-20z " />
<glyph unicode="&#xdd;" horiz-adv-x="1443" d="M313 1055v235h21v-235q0 -107 28 -150l199 -276q50 -74 131 -74h56q76 0 133 74l204 276q14 17 20.5 44.5t7.5 47.5t1 58v235h21v-235q0 -43 -0.5 -60.5t-8 -47.5t-22.5 -50l-205 -276q-34 -45 -69.5 -65.5t-81.5 -20.5h-15v-351h-20v351h-21q-86 0 -149 86l-199 276 q-14 19 -21.5 48t-8.5 50t-1 60zM496 1714v21l489 61v-20z" />
<glyph unicode="&#xde;" horiz-adv-x="1417" d="M362 184v1106h21v-203h422q94 0 156.5 -20t94.5 -60t44 -86.5t12 -111.5v-154q0 -65 -12 -110.5t-44 -84.5t-94.5 -58t-156.5 -19h-422v-199h-21zM383 403h422q71 0 122.5 12.5t83 33.5t50 54t25 68.5t6.5 83.5v154q0 48 -6.5 84t-25 70t-50 56t-83 35t-122.5 13h-422 v-664z" />
<glyph unicode="&#xdf;" horiz-adv-x="1554" d="M375 184v1106h508q212 0 151 -229l-82 -295h95q109 0 162 -48.5t53 -152.5v-180q0 -106 -54 -153.5t-180 -47.5h-115v21h115q115 0 164 42t49 138v180q0 95 -48 137.5t-146 42.5h-123l90 320q28 100 -5 152.5t-126 52.5h-488v-1086h-20z" />
<glyph unicode="&#xe0;" horiz-adv-x="1495" d="M328 184v437q0 111 34 198l132 336q15 37 24 54.5t26 40t41 31.5t58 9h201q33 0 56 -9t40 -31t26 -40.5t25 -56.5l142 -334q34 -87 34 -198v-437h-20v353h-799v-353h-20zM348 557h799v64q0 99 -33 190l-141 334q-15 36 -23 51.5t-23.5 36.5t-35.5 29t-47 8h-201 q-30 0 -51 -8.5t-36 -28t-23 -36.5t-21 -50l-131 -336q-33 -91 -33 -190v-64zM502 1776v20l489 -61v-21z" />
<glyph unicode="&#xe1;" horiz-adv-x="1495" d="M328 184v437q0 111 34 198l132 336q15 37 24 54.5t26 40t41 31.5t58 9h201q33 0 56 -9t40 -31t26 -40.5t25 -56.5l142 -334q34 -87 34 -198v-437h-20v353h-799v-353h-20zM348 557h799v64q0 99 -33 190l-141 334q-15 36 -23 51.5t-23.5 36.5t-35.5 29t-47 8h-201 q-30 0 -51 -8.5t-36 -28t-23 -36.5t-21 -50l-131 -336q-33 -91 -33 -190v-64zM502 1714v21l489 61v-20z" />
<glyph unicode="&#xe2;" horiz-adv-x="1495" d="M328 184v437q0 111 34 198l132 336q15 37 24 54.5t26 40t41 31.5t58 9h201q33 0 56 -9t40 -31t26 -40.5t25 -56.5l142 -334q34 -87 34 -198v-437h-20v353h-799v-353h-20zM348 557h799v64q0 99 -33 190l-141 334q-15 36 -23 51.5t-23.5 36.5t-35.5 29t-47 8h-201 q-30 0 -51 -8.5t-36 -28t-23 -36.5t-21 -50l-131 -336q-33 -91 -33 -190v-64zM502 1741v22l170 56q50 12 73 12q24 0 74 -12l170 -56v-22l-178 57q-40 12 -66 12q-25 0 -65 -12z" />
<glyph unicode="&#xe3;" horiz-adv-x="1495" d="M328 184v437q0 111 34 198l132 336q15 37 24 54.5t26 40t41 31.5t58 9h201q33 0 56 -9t40 -31t26 -40.5t25 -56.5l142 -334q34 -87 34 -198v-437h-20v353h-799v-353h-20zM348 557h799v64q0 99 -33 190l-141 334q-15 36 -23 51.5t-23.5 36.5t-35.5 29t-47 8h-201 q-30 0 -51 -8.5t-36 -28t-23 -36.5t-21 -50l-131 -336q-33 -91 -33 -190v-64zM502 1739v22q56 7 188 -10l58 -8l32 -4q151 -23 209 -17v-20q-64 -7 -213 16l-33 4l-57 9q-122 19 -184 8z" />
<glyph unicode="&#xe4;" horiz-adv-x="1495" d="M328 184v437q0 111 34 198l132 336q15 37 24 54.5t26 40t41 31.5t58 9h201q33 0 56 -9t40 -31t26 -40.5t25 -56.5l142 -334q34 -87 34 -198v-437h-20v353h-799v-353h-20zM348 557h799v64q0 99 -33 190l-141 334q-15 36 -23 51.5t-23.5 36.5t-35.5 29t-47 8h-201 q-30 0 -51 -8.5t-36 -28t-23 -36.5t-21 -50l-131 -336q-33 -91 -33 -190v-64zM469 1700v96h20v-96h-20zM997 1700v96h21v-96h-21z" />
<glyph unicode="&#xe5;" horiz-adv-x="1495" d="M328 184v437q0 111 34 198l132 336q15 37 24 54.5t26 40t41 31.5t58 9h201q33 0 56 -9t40 -31t26 -40.5t25 -56.5l142 -334q34 -87 34 -198v-437h-20v353h-799v-353h-20zM348 557h799v64q0 99 -33 190l-141 334q-15 36 -23 51.5t-23.5 36.5t-35.5 29t-47 8h-201 q-30 0 -51 -8.5t-36 -28t-23 -36.5t-21 -50l-131 -336q-33 -91 -33 -190v-64zM461 1556v93q0 40 6.5 69t25 56t50 44t83.5 27t124 10q89 0 148 -14.5t89.5 -43.5t42.5 -64t12 -84v-93q0 -50 -11.5 -84.5t-42.5 -63t-90 -42.5t-148 -14t-147.5 14t-89 42.5t-41.5 63t-11 84.5 zM481 1556q0 -94 57 -139t212 -45q106 0 167.5 23t83 61.5t21.5 99.5v93q0 45 -12 77t-41.5 58t-84 38.5t-134.5 12.5t-134 -12.5t-83 -38t-40.5 -57.5t-11.5 -78v-93z" />
<glyph unicode="&#xe6;" horiz-adv-x="2058" d="M324 184v412q0 125 22 188l152 416q21 53 43.5 71.5t60.5 18.5h1172v-20h-629v-512h463v-21h-463v-532h629v-21h-650v355h-780v-355h-20zM344 559h780v711h-522q-31 0 -50 -17t-34 -61l-151 -416q-23 -61 -23 -180v-37z" />
<glyph unicode="&#xe7;" horiz-adv-x="1286" d="M340 449v573q0 76 14.5 124.5t51.5 82t100 47.5t162 14h342v-20h-342q-122 0 -188.5 -25t-93 -77t-26.5 -146v-573q0 -69 13.5 -113.5t48.5 -75t94 -43t152 -12.5h342v-21h-181l-94 -258h-20l92 258h-139q-100 0 -163.5 14t-100 47.5t-50.5 81t-14 122.5z" />
<glyph unicode="&#xe8;" horiz-adv-x="1339" d="M365 184v1106h690v-20h-670v-514h504v-21h-504v-530h670v-21h-690zM424 1776v20l489 -61v-21z" />
<glyph unicode="&#xe9;" horiz-adv-x="1339" d="M365 184v1106h690v-20h-670v-514h504v-21h-504v-530h670v-21h-690zM485 1714v21l490 61v-20z" />
<glyph unicode="&#xea;" horiz-adv-x="1339" d="M365 184v1106h690v-20h-670v-514h504v-21h-504v-530h670v-21h-690zM444 1741v22l170 56q50 12 74 12t74 -12l170 -56v-22l-178 57q-40 12 -66 12q-25 0 -65 -12z" />
<glyph unicode="&#xeb;" horiz-adv-x="1339" d="M365 184v1106h690v-20h-670v-514h504v-21h-504v-530h670v-21h-690zM432 1700v96h21v-96h-21zM961 1700v96h20v-96h-20z" />
<glyph unicode="&#xec;" horiz-adv-x="1239" d="M293 184v21h317v1065h-317v20h651v-20h-313v-1065h313v-21h-651zM373 1776v20l489 -61v-21z" />
<glyph unicode="&#xed;" horiz-adv-x="1239" d="M293 184v21h317v1065h-317v20h651v-20h-313v-1065h313v-21h-651zM373 1714v21l489 61v-20z" />
<glyph unicode="&#xee;" horiz-adv-x="1239" d="M293 184v21h317v1065h-317v20h651v-20h-313v-1065h313v-21h-651zM373 1741v22l170 56q50 12 73 12q24 0 74 -12l170 -56v-22l-178 57q-40 12 -66 12q-25 0 -65 -12z" />
<glyph unicode="&#xef;" horiz-adv-x="1239" d="M293 184v21h317v1065h-317v20h651v-20h-313v-1065h313v-21h-651zM340 1700v96h20v-96h-20zM868 1700v96h21v-96h-21z" />
<glyph unicode="&#xf0;" horiz-adv-x="1548" d="M225 715v20h156v555h500q101 0 168 -21t100.5 -62.5t46 -88.5t12.5 -112v-543q0 -52 -6.5 -90t-27 -75.5t-56 -61t-95 -38t-142.5 -14.5h-500v531h-156zM401 205h480q95 0 158 18.5t94.5 55.5t43 79.5t11.5 104.5v543q0 61 -12 105t-44 82t-94.5 57.5t-156.5 19.5h-480 v-535h193v-20h-193v-510z" />
<glyph unicode="&#xf1;" horiz-adv-x="1542" d="M356 184v1084q0 11 7.5 17.5t17.5 6.5q13 0 31 -18l753 -848v864h21v-1106h-21v211l-774 869q-6 6 -10 6t-4 -6v-1080h-21zM524 1739v22q57 7 189 -10l57 -8l33 -4q151 -23 209 -17v-20q-64 -7 -213 16l-33 4l-57 9q-123 19 -185 8z" />
<glyph unicode="&#xf2;" d="M340 434v604q0 65 19.5 113.5t65 86.5t127.5 57.5t200 19.5t200.5 -19.5t128.5 -57.5t66 -86.5t20 -113.5v-604q0 -65 -20 -113.5t-66 -86t-128.5 -57t-200.5 -19.5t-200 19t-127.5 57t-65 86.5t-19.5 113.5zM360 434q0 -48 11.5 -86t39 -70.5t71.5 -54t112 -33.5 t158 -12t158 12t113 33.5t73 54t39.5 70.5t11.5 86v604q0 48 -11.5 86t-39.5 70.5t-73 54t-113 33.5t-158 12t-158 -12t-112 -33.5t-71.5 -54t-39 -70.5t-11.5 -86v-604zM508 1776v20l489 -61v-21z" />
<glyph unicode="&#xf3;" d="M340 434v604q0 65 19.5 113.5t65 86.5t127.5 57.5t200 19.5t200.5 -19.5t128.5 -57.5t66 -86.5t20 -113.5v-604q0 -65 -20 -113.5t-66 -86t-128.5 -57t-200.5 -19.5t-200 19t-127.5 57t-65 86.5t-19.5 113.5zM360 434q0 -48 11.5 -86t39 -70.5t71.5 -54t112 -33.5 t158 -12t158 12t113 33.5t73 54t39.5 70.5t11.5 86v604q0 48 -11.5 86t-39.5 70.5t-73 54t-113 33.5t-158 12t-158 -12t-112 -33.5t-71.5 -54t-39 -70.5t-11.5 -86v-604zM508 1714v21l489 61v-20z" />
<glyph unicode="&#xf4;" d="M340 434v604q0 65 19.5 113.5t65 86.5t127.5 57.5t200 19.5t200.5 -19.5t128.5 -57.5t66 -86.5t20 -113.5v-604q0 -65 -20 -113.5t-66 -86t-128.5 -57t-200.5 -19.5t-200 19t-127.5 57t-65 86.5t-19.5 113.5zM360 434q0 -48 11.5 -86t39 -70.5t71.5 -54t112 -33.5 t158 -12t158 12t113 33.5t73 54t39.5 70.5t11.5 86v604q0 48 -11.5 86t-39.5 70.5t-73 54t-113 33.5t-158 12t-158 -12t-112 -33.5t-71.5 -54t-39 -70.5t-11.5 -86v-604zM508 1741v22l170 56q50 12 74 12q23 0 73 -12l170 -56v-22l-178 57q-40 12 -65 12q-26 0 -66 -12z" />
<glyph unicode="&#xf5;" d="M340 434v604q0 65 19.5 113.5t65 86.5t127.5 57.5t200 19.5t200.5 -19.5t128.5 -57.5t66 -86.5t20 -113.5v-604q0 -65 -20 -113.5t-66 -86t-128.5 -57t-200.5 -19.5t-200 19t-127.5 57t-65 86.5t-19.5 113.5zM360 434q0 -48 11.5 -86t39 -70.5t71.5 -54t112 -33.5 t158 -12t158 12t113 33.5t73 54t39.5 70.5t11.5 86v604q0 48 -11.5 86t-39.5 70.5t-73 54t-113 33.5t-158 12t-158 -12t-112 -33.5t-71.5 -54t-39 -70.5t-11.5 -86v-604zM508 1739v22q56 7 188 -10l58 -8l32 -4q151 -23 209 -17v-20q-64 -7 -213 16l-32 4l-58 9 q-122 19 -184 8z" />
<glyph unicode="&#xf6;" d="M340 434v604q0 65 19.5 113.5t65 86.5t127.5 57.5t200 19.5t200.5 -19.5t128.5 -57.5t66 -86.5t20 -113.5v-604q0 -65 -20 -113.5t-66 -86t-128.5 -57t-200.5 -19.5t-200 19t-127.5 57t-65 86.5t-19.5 113.5zM360 434q0 -48 11.5 -86t39 -70.5t71.5 -54t112 -33.5 t158 -12t158 12t113 33.5t73 54t39.5 70.5t11.5 86v604q0 48 -11.5 86t-39.5 70.5t-73 54t-113 33.5t-158 12t-158 -12t-112 -33.5t-71.5 -54t-39 -70.5t-11.5 -86v-604zM475 1700v96h21v-96h-21zM1004 1700v96h20v-96h-20z" />
<glyph unicode="&#xf7;" horiz-adv-x="1503" d="M328 727v21h848v-21h-848zM741 240v92h21v-92h-21zM741 1143v92h21v-92h-21z" />
<glyph unicode="&#xf8;" d="M319 434v604q0 66 20 114t67.5 86t134 57.5t211.5 19.5q130 0 227 -23l59 142h23l-64 -148q103 -31 147 -93.5t44 -154.5v-604q0 -66 -20.5 -114t-68.5 -86t-135 -57t-212 -19q-132 0 -222 22l-59 -139h-22l61 145q-103 29 -147 91.5t-44 156.5zM340 434 q0 -86 40.5 -143.5t137.5 -85.5l453 1067q-90 22 -219 22q-119 0 -201.5 -18t-127.5 -53t-64 -79.5t-19 -105.5v-604zM539 199q96 -21 213 -21q119 0 201.5 18t128.5 53t65.5 79.5t19.5 105.5v604q0 177 -178 228z" />
<glyph unicode="&#xf9;" horiz-adv-x="1527" d="M356 436v854h21v-854q0 -61 18.5 -105.5t61.5 -79.5t120 -53t189 -18t189.5 18t121 53t62 79.5t18.5 105.5v854h21v-854q0 -65 -19.5 -113.5t-65 -86.5t-127.5 -57t-200 -19t-199.5 19t-126.5 57t-64.5 86t-19.5 114zM498 1776v20l489 -61v-21z" />
<glyph unicode="&#xfa;" horiz-adv-x="1527" d="M356 436v854h21v-854q0 -61 18.5 -105.5t61.5 -79.5t120 -53t189 -18t189.5 18t121 53t62 79.5t18.5 105.5v854h21v-854q0 -65 -19.5 -113.5t-65 -86.5t-127.5 -57t-200 -19t-199.5 19t-126.5 57t-64.5 86t-19.5 114zM539 1714v21l489 61v-20z" />
<glyph unicode="&#xfb;" horiz-adv-x="1527" d="M356 436v854h21v-854q0 -61 18.5 -105.5t61.5 -79.5t120 -53t189 -18t189.5 18t121 53t62 79.5t18.5 105.5v854h21v-854q0 -65 -19.5 -113.5t-65 -86.5t-127.5 -57t-200 -19t-199.5 19t-126.5 57t-64.5 86t-19.5 114zM518 1741v22l170 56q50 12 74 12t74 -12l170 -56v-22 l-179 57q-40 12 -65 12q-26 0 -66 -12z" />
<glyph unicode="&#xfc;" horiz-adv-x="1527" d="M356 436v854h21v-854q0 -61 18.5 -105.5t61.5 -79.5t120 -53t189 -18t189.5 18t121 53t62 79.5t18.5 105.5v854h21v-854q0 -65 -19.5 -113.5t-65 -86.5t-127.5 -57t-200 -19t-199.5 19t-126.5 57t-64.5 86t-19.5 114zM485 1700v96h21v-96h-21zM1014 1700v96h20v-96h-20z " />
<glyph unicode="&#xfd;" horiz-adv-x="1443" d="M313 1055v235h21v-235q0 -107 28 -150l199 -276q50 -74 131 -74h56q76 0 133 74l204 276q14 17 20.5 44.5t7.5 47.5t1 58v235h21v-235q0 -43 -0.5 -60.5t-8 -47.5t-22.5 -50l-205 -276q-34 -45 -69.5 -65.5t-81.5 -20.5h-15v-351h-20v351h-21q-86 0 -149 86l-199 276 q-14 19 -21.5 48t-8.5 50t-1 60zM496 1714v21l489 61v-20z" />
<glyph unicode="&#xfe;" horiz-adv-x="1417" d="M362 184v1106h21v-203h422q94 0 156.5 -20t94.5 -60t44 -86.5t12 -111.5v-154q0 -65 -12 -110.5t-44 -84.5t-94.5 -58t-156.5 -19h-422v-199h-21zM383 403h422q71 0 122.5 12.5t83 33.5t50 54t25 68.5t6.5 83.5v154q0 48 -6.5 84t-25 70t-50 56t-83 35t-122.5 13h-422 v-664z" />
<glyph unicode="&#xff;" horiz-adv-x="1443" d="M313 1055v235h21v-235q0 -107 28 -150l199 -276q50 -74 131 -74h56q76 0 133 74l204 276q14 17 20.5 44.5t7.5 47.5t1 58v235h21v-235q0 -43 -0.5 -60.5t-8 -47.5t-22.5 -50l-205 -276q-34 -45 -69.5 -65.5t-81.5 -20.5h-15v-351h-20v351h-21q-86 0 -149 86l-199 276 q-14 19 -21.5 48t-8.5 50t-1 60zM442 1700v96h21v-96h-21zM971 1700v96h20v-96h-20z" />
<glyph unicode="&#x152;" horiz-adv-x="2078" d="M340 463v543q0 52 7 91t28 77t56.5 62t95.5 39t141 15h1106v-20h-629v-512h463v-21h-463v-532h629v-21h-1106q-103 0 -170.5 20.5t-100.5 61t-45 86t-12 111.5zM360 453q1 -58 13.5 -99.5t44.5 -77t94.5 -53.5t155.5 -18h456v1065h-456q-75 0 -130.5 -13.5t-89.5 -36 t-54 -57.5t-27 -72t-7 -85v-553z" />
<glyph unicode="&#x153;" horiz-adv-x="2078" d="M340 463v543q0 52 7 91t28 77t56.5 62t95.5 39t141 15h1106v-20h-629v-512h463v-21h-463v-532h629v-21h-1106q-103 0 -170.5 20.5t-100.5 61t-45 86t-12 111.5zM360 453q1 -58 13.5 -99.5t44.5 -77t94.5 -53.5t155.5 -18h456v1065h-456q-75 0 -130.5 -13.5t-89.5 -36 t-54 -57.5t-27 -72t-7 -85v-553z" />
<glyph unicode="&#x178;" horiz-adv-x="1443" d="M313 1055v235h21v-235q0 -107 28 -150l199 -276q50 -74 131 -74h56q76 0 133 74l204 276q14 17 20.5 44.5t7.5 47.5t1 58v235h21v-235q0 -43 -0.5 -60.5t-8 -47.5t-22.5 -50l-205 -276q-34 -45 -69.5 -65.5t-81.5 -20.5h-15v-351h-20v351h-21q-86 0 -149 86l-199 276 q-14 19 -21.5 48t-8.5 50t-1 60zM442 1700v96h21v-96h-21zM971 1700v96h20v-96h-20z" />
<glyph unicode="&#x2c6;" horiz-adv-x="1024" d="M266 1741v22l170 56q50 12 74 12t74 -12l170 -56v-22l-179 57q-40 12 -65 12q-26 0 -66 -12z" />
<glyph unicode="&#x2dc;" horiz-adv-x="1024" d="M266 1739v22q57 7 189 -10l57 -8l33 -4q151 -23 209 -17v-20q-64 -7 -213 16l-33 4l-57 9q-123 19 -185 8z" />
<glyph unicode="&#x2000;" horiz-adv-x="927" />
<glyph unicode="&#x2001;" horiz-adv-x="1855" />
<glyph unicode="&#x2002;" horiz-adv-x="927" />
<glyph unicode="&#x2003;" horiz-adv-x="1855" />
<glyph unicode="&#x2004;" horiz-adv-x="618" />
<glyph unicode="&#x2005;" horiz-adv-x="463" />
<glyph unicode="&#x2006;" horiz-adv-x="309" />
<glyph unicode="&#x2007;" horiz-adv-x="309" />
<glyph unicode="&#x2008;" horiz-adv-x="231" />
<glyph unicode="&#x2009;" horiz-adv-x="371" />
<glyph unicode="&#x200a;" horiz-adv-x="103" />
<glyph unicode="&#x2010;" horiz-adv-x="860" d="M266 727v21h328v-21h-328z" />
<glyph unicode="&#x2011;" horiz-adv-x="860" d="M266 727v21h328v-21h-328z" />
<glyph unicode="&#x2012;" horiz-adv-x="860" d="M266 727v21h328v-21h-328z" />
<glyph unicode="&#x2013;" horiz-adv-x="1503" d="M328 727v21h848v-21h-848z" />
<glyph unicode="&#x2014;" horiz-adv-x="2322" d="M328 727v21h1667v-21h-1667z" />
<glyph unicode="&#x2018;" horiz-adv-x="786" d="M256 922v243q0 92 47.5 139.5t132.5 47.5h94v-21h-94q-75 0 -117.5 -42t-42.5 -124v-223h254v-20h-274z" />
<glyph unicode="&#x2019;" horiz-adv-x="786" d="M256 829v21h94q75 0 117.5 42t42.5 124v223h-254v21h274v-244q0 -92 -47.5 -139.5t-132.5 -47.5h-94z" />
<glyph unicode="&#x201a;" horiz-adv-x="786" d="M256 -61h94q75 0 117.5 42t42.5 123v224h-254v20h274v-244q0 -92 -47.5 -139t-132.5 -47h-94v21z" />
<glyph unicode="&#x201c;" horiz-adv-x="1400" d="M236 922v243q0 92 47.5 139.5t132.5 47.5h94v-21h-94q-75 0 -117.5 -42t-42.5 -124v-223h254v-20h-274zM891 922v243q0 92 47.5 139.5t132.5 47.5h94v-21h-94q-75 0 -117.5 -42t-42.5 -124v-223h254v-20h-274z" />
<glyph unicode="&#x201d;" horiz-adv-x="1400" d="M236 829v21h94q75 0 117 42t42 124v223h-253v21h274v-244q0 -92 -47.5 -139.5t-132.5 -47.5h-94zM891 829v21h94q75 0 117.5 42t42.5 124v223h-254v21h274v-244q0 -92 -47.5 -139.5t-132.5 -47.5h-94z" />
<glyph unicode="&#x201e;" horiz-adv-x="1400" d="M236 -61h94q75 0 117 41.5t42 123.5v224h-253v20h274v-244q0 -92 -47.5 -139t-132.5 -47h-94v21zM891 -61h94q75 0 117.5 42t42.5 123v224h-254v20h274v-244q0 -92 -47.5 -139t-132.5 -47h-94v21z" />
<glyph unicode="&#x2022;" horiz-adv-x="907" d="M276 563v357h355v-357h-355zM297 584h313v315h-313v-315z" />
<glyph unicode="&#x2026;" horiz-adv-x="2273" d="M383 184v195h20v-195h-20zM1126 184v195h21v-195h-21zM1870 184v195h20v-195h-20z" />
<glyph unicode="&#x202f;" horiz-adv-x="371" />
<glyph unicode="&#x2039;" horiz-adv-x="1153" d="M328 635v160q0 60 25.5 90t80.5 41l385 78v-21l-381 -78q-46 -9 -68 -34t-22 -76v-160q0 -51 22.5 -76.5t69.5 -34.5l379 -78v-20l-383 78q-57 11 -82.5 41t-25.5 90z" />
<glyph unicode="&#x203a;" horiz-adv-x="1153" d="M348 426v20l379 78q47 9 69.5 34.5t22.5 76.5v160q0 51 -22 76t-68 34l-381 78v21l385 -78q56 -11 81.5 -41t25.5 -90v-160q0 -60 -26 -90t-83 -41z" />
<glyph unicode="&#x205f;" horiz-adv-x="463" />
<glyph unicode="&#x20ac;" horiz-adv-x="1327" d="M225 559v21h148v307h-148v20h148v115q0 102 27 157.5t98 83t202 27.5h353v-20h-353q-121 0 -187.5 -25t-93 -77t-26.5 -146v-115h488v-20h-488v-307h488v-21h-488v-110q0 -93 25.5 -143.5t92 -75.5t189.5 -25h353v-21h-353q-100 0 -163.5 14t-100 47.5t-50 81 t-13.5 122.5v110h-148z" />
<glyph unicode="&#x2122;" horiz-adv-x="1849" d="M119 1337v21h579v-21h-282v-622h-21v622h-276zM1006 715v604q0 18 11 28.5t25 10.5h15q28 0 43 -23l188 -264q9 -12 17 -12h4q5 0 7.5 2t5.5 6t5 6l186 262q15 23 43 23h15q16 0 26.5 -10.5t10.5 -28.5v-604h-21v604q0 18 -16 18h-15q-15 0 -26 -14l-187 -262 q-16 -23 -34 -23h-4q-20 0 -33 21l-189 264q-11 14 -26 14h-15q-16 0 -16 -18v-604h-20z" />
<glyph unicode="&#x25fc;" horiz-adv-x="1290" d="M0 0v1290h1290v-1290h-1290z" />
<glyph unicode="&#xfb01;" horiz-adv-x="2504" d="M365 184v1106h653v-20h-633v-586h467v-20h-467v-480h-20zM1559 184v21h317v1065h-317v20h651v-20h-314v-1065h314v-21h-651z" />
<glyph unicode="&#xfb02;" horiz-adv-x="2689" d="M365 184v1106h653v-20h-633v-586h467v-20h-467v-480h-20zM1630 184v1106h21v-1085h712v403h21v-424h-754z" />
</font>
</defs>
</svg>
